<?xml version="1.0" encoding="UTF-8"?>
<!DOCTYPE svg PUBLIC "-//W3C//DTD SVG 1.1//EN" "http://www.w3.org/Graphics/SVG/1.1/DTD/svg11.dtd">
<svg xmlns="http://www.w3.org/2000/svg" version="1.1" width="569px" height="150px" style="shape-rendering:geometricPrecision; text-rendering:geometricPrecision; image-rendering:optimizeQuality; fill-rule:evenodd; clip-rule:evenodd" xmlns:xlink="http://www.w3.org/1999/xlink">
<g><path style="opacity:1" fill="#fdfefd" d="M -0.5,-0.5 C 189.167,-0.5 378.833,-0.5 568.5,-0.5C 568.5,49.5 568.5,99.5 568.5,149.5C 378.833,149.5 189.167,149.5 -0.5,149.5C -0.5,99.5 -0.5,49.5 -0.5,-0.5 Z"/></g>
<g><path style="opacity:1" fill="#5abb70" d="M 21.5,13.5 C 29.1739,13.3336 36.8406,13.5003 44.5,14C 48.5476,18.6507 50.5476,24.1507 50.5,30.5C 66.1667,30.5 81.8333,30.5 97.5,30.5C 98.0037,34.531 98.6704,38.531 99.5,42.5C 84.5,43.1667 69.5,43.8333 54.5,44.5C 57.9737,56.7279 60.9737,69.0612 63.5,81.5C 83.8361,81.6666 104.169,81.5 124.5,81C 125.416,80.6258 126.25,80.1258 127,79.5C 132.774,84.5212 132.607,89.3545 126.5,94C 102.412,94.9797 78.4122,94.6463 54.5,93C 47.9747,71.4019 42.1413,49.5685 37,27.5C 31.917,26.6929 26.7503,26.1929 21.5,26C 16.1761,21.6575 16.1761,17.4908 21.5,13.5 Z"/></g>
<g><path style="opacity:1" fill="#385163" d="M 196.5,17.5 C 209.925,17.0933 216.425,23.4267 216,36.5C 214.951,37.5171 213.784,37.6838 212.5,37C 210.965,34.3761 209.798,31.5428 209,28.5C 202.96,22.8973 197.293,23.2306 192,29.5C 191.333,32.5 191.333,35.5 192,38.5C 198.188,42.2337 204.688,45.4003 211.5,48C 217.196,54.4694 218.029,61.6361 214,69.5C 206.539,77.7043 198.372,78.5376 189.5,72C 185.596,67.7999 184.263,62.9666 185.5,57.5C 186.723,56.3861 188.056,56.2195 189.5,57C 191.099,67.2995 196.765,70.9662 206.5,68C 210.512,64.0954 211.345,59.5954 209,54.5C 202.97,51.4844 196.803,48.6511 190.5,46C 184.152,40.0526 182.986,33.2193 187,25.5C 189.772,22.2166 192.939,19.5499 196.5,17.5 Z"/></g>
<g><path style="opacity:1" fill="#385163" d="M 387.5,17.5 C 398.199,17.2068 404.866,22.2068 407.5,32.5C 407.493,36.0125 405.827,37.5125 402.5,37C 400.965,34.3761 399.798,31.5428 399,28.5C 395.146,24.3294 390.646,23.4961 385.5,26C 381.329,29.8543 380.496,34.3543 383,39.5C 389.065,42.5231 395.232,45.3565 401.5,48C 409.85,57.2328 409.183,65.8994 399.5,74C 386.433,78.9656 378.1,74.6322 374.5,61C 374.745,57.7455 376.412,56.4121 379.5,57C 381.035,59.6239 382.202,62.4572 383,65.5C 386.854,69.6706 391.354,70.5039 396.5,68C 401.311,63.2093 401.644,58.2093 397.5,53C 391.378,50.6342 385.378,47.9676 379.5,45C 372.326,36.3835 372.993,28.3835 381.5,21C 383.727,20.059 385.727,18.8923 387.5,17.5 Z"/></g>
<g><path style="opacity:1" fill="#5aba6f" d="M 109.5,19.5 C 123.984,26.4617 138.151,34.1283 152,42.5C 152.667,44.5 152.667,46.5 152,48.5C 148.757,49.8716 145.591,51.3716 142.5,53C 147.285,59.4364 151.619,66.1031 155.5,73C 155.333,73.8333 155.167,74.6667 155,75.5C 152.167,77.6667 149.333,79.8333 146.5,82C 144.888,82.7203 143.388,82.5536 142,81.5C 138.046,75.0518 133.546,69.0518 128.5,63.5C 125.976,65.1901 123.976,67.3568 122.5,70C 120.231,70.7581 118.064,70.5914 116,69.5C 113.087,54.2679 109.92,39.1013 106.5,24C 107.315,22.3566 108.315,20.8566 109.5,19.5 Z"/></g>
<g><path style="opacity:1" fill="#3a5365" d="M 428.5,25.5 C 428.5,29.8333 428.5,34.1667 428.5,38.5C 431.167,38.5 433.833,38.5 436.5,38.5C 438.647,39.9321 438.98,41.7655 437.5,44C 434.854,44.4974 432.187,44.6641 429.5,44.5C 429.666,54.5056 429.5,64.5056 429,74.5C 427,77.1667 425,77.1667 423,74.5C 422.5,64.5056 422.334,54.5056 422.5,44.5C 419.813,44.6641 417.146,44.4974 414.5,44C 413.065,41.7328 413.398,39.7328 415.5,38C 417.81,37.5034 420.143,37.3367 422.5,37.5C 422.334,33.4862 422.501,29.4862 423,25.5C 424.943,24.193 426.777,24.193 428.5,25.5 Z"/></g>
<g><path style="opacity:1" fill="#6f818f" d="M 428.5,25.5 C 429.483,29.2984 429.817,33.2984 429.5,37.5C 432.059,37.1984 434.393,37.5318 436.5,38.5C 433.833,38.5 431.167,38.5 428.5,38.5C 428.5,34.1667 428.5,29.8333 428.5,25.5 Z"/></g>
<g><path style="opacity:1" fill="#375062" d="M 237.5,38.5 C 244.055,37.6336 250.055,38.9669 255.5,42.5C 256.449,38.7269 258.616,37.7269 262,39.5C 262.667,51.1667 262.667,62.8333 262,74.5C 258.219,77.563 256.219,76.563 256,71.5C 244.664,79.4263 234.998,77.7596 227,66.5C 221.922,53.896 225.422,44.5627 237.5,38.5 Z"/></g>
<g><path style="opacity:1" fill="#375063" d="M 271.5,38.5 C 273.144,38.2865 274.644,38.6198 276,39.5C 279.266,47.7999 282.433,56.1332 285.5,64.5C 288.831,56.1763 292.164,47.843 295.5,39.5C 297.353,38.2404 299.186,38.2404 301,39.5C 297.318,51.8688 292.818,64.0355 287.5,76C 284.702,76.5608 282.869,75.3941 282,72.5C 278.529,63.0876 274.863,53.7543 271,44.5C 270.322,42.4024 270.489,40.4024 271.5,38.5 Z"/></g>
<g><path style="opacity:1" fill="#385063" d="M 304.5,38.5 C 306.288,38.2148 307.955,38.5481 309.5,39.5C 312.647,47.6151 315.98,55.6151 319.5,63.5C 322.762,55.5493 325.929,47.5493 329,39.5C 333.846,37.6775 335.512,39.3442 334,44.5C 329.931,54.8733 325.764,65.2066 321.5,75.5C 320.167,76.8333 318.833,76.8333 317.5,75.5C 312.695,64.0567 308.028,52.5567 303.5,41C 303.743,40.0979 304.077,39.2646 304.5,38.5 Z"/></g>
<g><path style="opacity:1" fill="#375063" d="M 338.5,38.5 C 340.722,38.178 342.556,38.8446 344,40.5C 347.277,48.055 350.277,55.7217 353,63.5C 356.333,55.5 359.667,47.5 363,39.5C 365.786,37.8158 367.62,38.4825 368.5,41.5C 362.629,57.2798 356.462,72.9465 350,88.5C 348.582,90.3632 346.749,90.8632 344.5,90C 343.941,89.2753 343.608,88.4419 343.5,87.5C 345.358,82.2827 347.358,77.1161 349.5,72C 346.058,62.34 342.225,52.84 338,43.5C 337.36,41.735 337.527,40.0683 338.5,38.5 Z"/></g>
<g><path style="opacity:1" fill="#364f62" d="M 455.5,38.5 C 476.45,37.9352 483.95,47.6019 478,67.5C 467.3,79.4234 456.633,79.4234 446,67.5C 440.126,54.732 443.292,45.0653 455.5,38.5 Z"/></g>
<g><path style="opacity:1" fill="#344d60" d="M 491.5,38.5 C 496.439,38.9324 501.439,39.0991 506.5,39C 509,40.8184 510.666,43.1517 511.5,46C 511.331,48.1674 510.164,49.3341 508,49.5C 506.244,47.3514 504.077,45.6848 501.5,44.5C 499.617,44.8757 498.117,45.8757 497,47.5C 496.667,56.5 496.333,65.5 496,74.5C 494.604,76.5268 492.938,76.8602 491,75.5C 490.188,63.0911 490.355,50.7577 491.5,38.5 Z"/></g>
<g><path style="opacity:1" fill="#364f62" d="M 528.5,38.5 C 539.817,36.3159 547.984,40.3159 553,50.5C 553.667,52.8333 553.667,55.1667 553,57.5C 542.916,58.4861 532.749,58.8194 522.5,58.5C 524.523,67.02 529.856,70.52 538.5,69C 540.983,67.6736 543.483,66.5069 546,65.5C 547.971,65.2814 549.138,66.1147 549.5,68C 546.017,73.3426 541.017,76.1759 534.5,76.5C 521.38,73.9481 515.213,65.9481 516,52.5C 518.636,46.3695 522.803,41.7028 528.5,38.5 Z"/></g>
<g><path style="opacity:1" fill="#fbfbfb" d="M 240.5,44.5 C 252.222,45.0482 257.055,51.0482 255,62.5C 251.155,68.667 245.655,70.8337 238.5,69C 232.311,65.1176 230.145,59.6176 232,52.5C 234.074,48.9231 236.907,46.2565 240.5,44.5 Z"/></g>
<g><path style="opacity:1" fill="#fafafb" d="M 458.5,44.5 C 469.669,44.1677 474.836,49.501 474,60.5C 470.994,68.0636 465.494,70.897 457.5,69C 449.372,64.2507 447.539,57.7507 452,49.5C 454.326,47.9343 456.492,46.2676 458.5,44.5 Z"/></g>
<g><path style="opacity:1" fill="#edeff1" d="M 531.5,44.5 C 538.137,43.8185 543.137,46.3185 546.5,52C 538.812,52.8315 531.145,52.6648 523.5,51.5C 525.595,48.398 528.262,46.0647 531.5,44.5 Z"/></g>
<g><path style="opacity:1" fill="#5cbb71" d="M 62.5,100.5 C 77.7235,99.7846 82.0568,106.285 75.5,120C 62.378,125.223 56.2113,120.723 57,106.5C 59.0396,104.63 60.8729,102.63 62.5,100.5 Z"/></g>
<g><path style="opacity:1" fill="#5bbb70" d="M 107.5,100.5 C 122.212,100.35 126.545,106.85 120.5,120C 106.741,125.872 100.575,121.372 102,106.5C 103.36,103.977 105.193,101.977 107.5,100.5 Z"/></g>
<g><path style="opacity:1" fill="#244112" d="M 186.5,110.5 C 186.5,111.167 186.5,111.833 186.5,112.5C 185.686,114.631 185.186,116.964 185,119.5C 184.333,114.833 184.333,110.167 185,105.5C 185.198,107.382 185.698,109.048 186.5,110.5 Z"/></g>
<g><path style="opacity:1" fill="#385228" d="M 232.5,105.5 C 235.119,105.232 237.619,105.565 240,106.5C 241.509,111.493 239.675,113.493 234.5,112.5C 234.663,114.857 234.497,117.19 234,119.5C 233.667,119.167 233.333,118.833 233,118.5C 232.501,114.179 232.334,109.846 232.5,105.5 Z"/></g>
<g><path style="opacity:1" fill="#2a4518" d="M 254.5,105.5 C 260.662,104.156 262.662,106.322 260.5,112C 258.866,112.494 257.199,112.66 255.5,112.5C 255.5,114.5 255.5,116.5 255.5,118.5C 254.515,114.366 254.182,110.032 254.5,105.5 Z"/></g>
<g><path style="opacity:1" fill="#385227" d="M 314.5,105.5 C 316.199,105.34 317.866,105.506 319.5,106C 320.517,107.049 320.684,108.216 320,109.5C 318.31,105.809 316.476,105.643 314.5,109C 315.954,110.713 317.788,111.88 320,112.5C 321.205,115.868 320.205,118.202 317,119.5C 314.277,118.792 313.277,117.125 314,114.5C 315.406,117.922 317.239,118.255 319.5,115.5C 317.971,113.812 316.137,112.479 314,111.5C 313.322,109.402 313.489,107.402 314.5,105.5 Z"/></g>
<g><path style="opacity:1" fill="#506640" d="M 386.5,104.5 C 392.496,103.333 394.996,105.666 394,111.5C 392.416,112.861 390.582,113.528 388.5,113.5C 388.799,115.604 388.466,117.604 387.5,119.5C 386.506,114.544 386.173,109.544 386.5,104.5 Z"/></g>
<g><path style="opacity:1" fill="#314c20" d="M 412.5,112.5 C 411.167,112.5 409.833,112.5 408.5,112.5C 408.795,114.735 408.461,116.735 407.5,118.5C 407.5,114.167 407.5,109.833 407.5,105.5C 409.924,105.192 412.257,105.526 414.5,106.5C 416.008,109.312 415.341,111.312 412.5,112.5 Z"/></g>
<g><path style="opacity:1" fill="#2a4619" d="M 450.5,113.5 C 450.783,114.289 451.283,114.956 452,115.5C 452.498,112.183 452.665,108.85 452.5,105.5C 453.648,109.981 453.815,114.648 453,119.5C 450.667,116.167 448.333,112.833 446,109.5C 445.667,112.833 445.333,116.167 445,119.5C 444.333,114.833 444.333,110.167 445,105.5C 447.09,108.022 448.924,110.688 450.5,113.5 Z"/></g>
<g><path style="opacity:1" fill="#eef0ec" d="M 234.5,106.5 C 238.676,105.831 240.009,107.331 238.5,111C 237.207,111.49 235.873,111.657 234.5,111.5C 234.5,109.833 234.5,108.167 234.5,106.5 Z"/></g>
<g><path style="opacity:1" fill="#667a59" d="M 254.5,105.5 C 254.182,110.032 254.515,114.366 255.5,118.5C 255.44,119.043 255.107,119.376 254.5,119.5C 253.188,114.682 253.188,110.015 254.5,105.5 Z"/></g>
<g><path style="opacity:1" fill="#ebeee9" d="M 255.5,106.5 C 259.676,105.831 261.009,107.331 259.5,111C 258.207,111.49 256.873,111.657 255.5,111.5C 255.5,109.833 255.5,108.167 255.5,106.5 Z"/></g>
<g><path style="opacity:1" fill="#4f6640" d="M 334.5,105.5 C 336.256,106.552 336.923,108.219 336.5,110.5C 338.833,110.5 341.167,110.5 343.5,110.5C 343.215,108.712 343.548,107.045 344.5,105.5C 344.833,107.667 345.167,109.833 345.5,112C 345.609,114.7 345.109,117.2 344,119.5C 343.503,117.19 343.337,114.857 343.5,112.5C 341.167,112.5 338.833,112.5 336.5,112.5C 336.808,114.924 336.474,117.257 335.5,119.5C 334.507,114.88 334.173,110.214 334.5,105.5 Z"/></g>
<g><path style="opacity:1" fill="#fdfdfd" d="M 388.5,106.5 C 392.161,106.35 393.161,107.85 391.5,111C 390.552,111.483 389.552,111.649 388.5,111.5C 388.5,109.833 388.5,108.167 388.5,106.5 Z"/></g>
<g><path style="opacity:1" fill="#fcfdfc" d="M 409.5,106.5 C 413.161,106.35 414.161,107.85 412.5,111C 411.552,111.483 410.552,111.649 409.5,111.5C 409.5,109.833 409.5,108.167 409.5,106.5 Z"/></g>
<g><path style="opacity:1" fill="#6c7f5f" d="M 428.5,105.5 C 429.8,107.223 430.467,109.39 430.5,112C 430.609,114.7 430.109,117.2 429,119.5C 428.501,114.845 428.334,110.179 428.5,105.5 Z"/></g>
<g><path style="opacity:1" fill="#96a48e" d="M 452.5,105.5 C 452.665,108.85 452.498,112.183 452,115.5C 451.283,114.956 450.783,114.289 450.5,113.5C 451.167,110.833 451.833,108.167 452.5,105.5 Z"/></g>
<g><path style="opacity:1" fill="#596f4a" d="M 186.5,112.5 C 186.5,111.833 186.5,111.167 186.5,110.5C 188.5,110.5 190.5,110.5 192.5,110.5C 192.215,108.712 192.548,107.045 193.5,105.5C 194.662,110.131 194.828,114.798 194,119.5C 192.648,117.406 192.148,115.073 192.5,112.5C 190.5,112.5 188.5,112.5 186.5,112.5 Z"/></g>
<g><path style="opacity:1" fill="#354f24" d="M 212.5,105.5 C 214.411,105.574 215.578,106.574 216,108.5C 216.725,110.949 217.725,113.283 219,115.5C 219.668,119.982 219.168,120.315 217.5,116.5C 213.313,114.504 210.313,115.504 208.5,119.5C 208.167,119.167 207.833,118.833 207.5,118.5C 209.457,114.256 211.124,109.923 212.5,105.5 Z"/></g>
<g><path style="opacity:1" fill="#e7eae5" d="M 213.5,108.5 C 214.601,109.848 215.601,111.348 216.5,113C 211.28,114.042 210.28,112.542 213.5,108.5 Z"/></g>
<g><path style="opacity:1" fill="#3d562c" d="M 273.5,105.5 C 275.686,106.823 277.186,108.823 278,111.5C 279.252,109.999 280.252,108.332 281,106.5C 281.718,105.549 282.551,105.383 283.5,106C 280.356,109.905 278.69,114.405 278.5,119.5C 277.936,114.386 276.27,109.719 273.5,105.5 Z"/></g>
<g><path style="opacity:1" fill="#3e572d" d="M 362.5,105.5 C 370.328,104.493 373.494,107.826 372,115.5C 367.295,120.964 362.962,120.631 359,114.5C 357.98,110.553 359.147,107.553 362.5,105.5 Z"/></g>
<g><path style="opacity:1" fill="#f6f7f6" d="M 363.5,106.5 C 369.33,106.161 371.83,108.827 371,114.5C 367.619,118.485 364.286,118.485 361,114.5C 360.018,111.225 360.851,108.559 363.5,106.5 Z"/></g>
<g><path style="opacity:1" fill="#7f9074" d="M 412.5,112.5 C 411.791,113.404 410.791,113.737 409.5,113.5C 409.799,115.604 409.466,117.604 408.5,119.5C 407.893,119.376 407.56,119.043 407.5,118.5C 408.461,116.735 408.795,114.735 408.5,112.5C 409.833,112.5 411.167,112.5 412.5,112.5 Z"/></g>
<g><path style="opacity:1" fill="#385227" d="M 470.5,105.5 C 473.187,105.336 475.854,105.503 478.5,106C 479.451,106.718 479.617,107.551 479,108.5C 471.563,105.055 468.563,107.389 470,115.5C 472.209,117.706 474.709,118.04 477.5,116.5C 478.429,115.311 478.762,113.978 478.5,112.5C 476.801,112.66 475.134,112.494 473.5,112C 475.473,111.505 477.473,111.338 479.5,111.5C 480.058,118.556 477.058,120.723 470.5,118C 466.547,113.835 466.547,109.669 470.5,105.5 Z"/></g>
</svg>
